# ProBuilder 4.5.2
# https://unity3d.com/unity/features/worldbuilding/probuilder
# 13/12/2021 23:10:29

mtllib ./Grass_1.mtl
o Grass 1

g Grass 1
v 0.0003202439 -0.1008287 -0.02503243
v -0.004214668 -0.1002502 -0.01560555
v -0.01917076 0.05698433 -0.04305763
v 0.002574921 -0.1002502 -0.02294731
v 0.004829598 -0.09967174 -0.0208622
v 0.00936451 -0.1002502 -0.03028908
v -0.005479813 -0.0988287 -0.01143246
v 0.0001955032 -0.1014462 -0.0001649857
v -0.0235693 0.09277859 0.04305773
v -0.002443123 -0.09833517 -0.01198063
v 0.0005935669 -0.09784155 -0.0125288
v -0.005081749 -0.0952241 -0.02379627
v -0.001279831 -0.09702873 -0.01023254
v 0.001826668 -0.09736843 0.002267456
v 0.02356949 0.1014462 -0.01023254
v 0.001826668 -0.09736843 -0.01023254
v 0.004933167 -0.09770823 -0.01023254
v 0.001826668 -0.09736843 -0.02273254
v -0.000679779 -0.0974287 -0.003632545
v -0.0009773255 -0.09815035 0.003311348
v 0.02230988 -0.0008534432 0.008795929
v 0.001994896 -0.09815035 -0.002186585
v 0.004669571 -0.09887209 -0.0007406235
v 0.004967117 -0.09815035 -0.007684517

vt 0 0
vt 0.08838835 0
vt 0.04419417 1.000976
vt -0.6205876 -0.1756562
vt -0.5580876 -0.1131562
vt -0.5580876 -0.1756562
vt -0.4955876 -0.1756562
vt -0.5580876 -0.2381562
vt -0.5596957 0.01553418
vt -0.5097271 0.09425703
vt -0.5371004 0.01061244
vt -0.5091617 0.07451821
vt -0.4308785 0.03670581
vt -0.4384765 0.01543474
vt -0.4364049 0.01776309
vt -0.4863736 -0.06095974
vt -0.4590003 0.02268481
vt -0.486939 -0.0412208
vt -0.5652222 -0.00340841
vt -0.5576242 0.01786258
vt -0.5651405 -0.2284911
vt -0.5147386 -0.1474566
vt -0.5435147 -0.2287396
vt -0.5132759 -0.1639046
vt -0.4402703 -0.2027342
vt -0.4459028 -0.2250862
vt -0.4456592 -0.220042
vt -0.4960612 -0.3010764
vt -0.4672849 -0.2197933
vt -0.4975238 -0.2846285
vt -0.5705293 -0.245799
vt -0.5648969 -0.2234469
vt -0.5322163 -0.2220586
vt -0.4771227 -0.1428805
vt -0.4805587 -0.2069063
vt -0.4474049 -0.1482226
vt -0.4019956 -0.2150746
vt -0.4627674 -0.2218613
vt -0.4117274 -0.211891
vt -0.4668211 -0.2910691
vt -0.4633849 -0.2270432
vt -0.4965389 -0.2857269
vt -0.541948 -0.2188749
vt -0.4811761 -0.2120884

vn -0.1787083 -0.03166908 -0.0840263
vn 0.02718168 -0.1965433 0.02513733
vn 0.09670133 0.03899598 0.1706698
vn 0.177695 0.0389959 0.08308922
vn -0.09771465 -0.03166915 -0.1716069
vn -0.1786061 -0.03981558 0.08071294
vn 0.0211251 -0.1911143 -0.05503672
vn 0.198442 0.02146627 0.01264738
vn 0.1779657 0.04560889 -0.07904456
vn -0.1990824 -0.01567295 -0.01097899
vn -0.1925267 0.0241046 0.04850179
vn -0.02174061 -0.1988149 0
vn 0.1931858 -0.0180778 0.04850194
vn 0.1931858 -0.0180778 -0.04850194
vn -0.1925267 0.0241046 -0.04850179
vn -0.1944327 0.04673171 -0.003474854
vn -0.04062872 -0.1945942 -0.02196418
vn 0.1116641 -0.03585797 0.1620041
vn 0.1967031 -0.03585788 0.004701714
vn -0.1093942 0.04673184 -0.1607764

usemtl Grass
f 1/1/1 2/2/1 3/3/1
f 4/6/2 2/5/2 1/4/2
f 2/1/3 5/2/3 3/3/3
f 4/6/2 5/7/2 2/5/2
f 5/1/4 6/2/4 3/3/4
f 4/6/2 6/8/2 5/7/2
f 6/1/5 1/2/5 3/3/5
f 4/6/2 1/4/2 6/8/2
f 7/1/6 8/2/6 9/3/6
f 10/11/7 8/10/7 7/9/7
f 8/1/8 11/2/8 9/3/8
f 10/14/7 11/13/7 8/12/7
f 11/1/9 12/2/9 9/3/9
f 10/17/7 12/16/7 11/15/7
f 12/1/10 7/2/10 9/3/10
f 10/20/7 7/19/7 12/18/7
f 13/1/11 14/2/11 15/3/11
f 16/23/12 14/22/12 13/21/12
f 14/1/13 17/2/13 15/3/13
f 16/26/12 17/25/12 14/24/12
f 17/1/14 18/2/14 15/3/14
f 16/29/12 18/28/12 17/27/12
f 18/1/15 13/2/15 15/3/15
f 16/32/12 13/31/12 18/30/12
f 19/1/16 20/2/16 21/3/16
f 22/35/17 20/34/17 19/33/17
f 20/1/18 23/2/18 21/3/18
f 22/38/17 23/37/17 20/36/17
f 23/1/19 24/2/19 21/3/19
f 22/41/17 24/40/17 23/39/17
f 24/1/20 19/2/20 21/3/20
f 22/44/17 19/43/17 24/42/17

usemtl FlowerRed

